PathFileType	4	(X/Y/Z)	c:/Users/goper/Files/vsCode/490R/osim_files/A01/A01_PWS_06.trc
DataRate	CameraRate	NumFrames	NumMarkers	Units                	OrigDataRate	OrigDataStartFrame	OrigNumFrames
120.00	120.00	5	36	mm	120.0	568	1135
                Frame#	Time	Mobility_markerset:LPSIS			Mobility_markerset:LASIS			Mobility_markerset:LTH1			Mobility_markerset:LTH2			Mobility_markerset:LTH3			Mobility_markerset:LTH4			Mobility_markerset:LLFE			Mobility_markerset:LMFE			Mobility_markerset:LSH1			Mobility_markerset:LSH2			Mobility_markerset:LSH3			Mobility_markerset:LSH4			Mobility_markerset:LLMAL			Mobility_markerset:LMMAL			Mobility_markerset:LCAL			Mobility_markerset:LMTP5			Mobility_markerset:LTOE			Mobility_markerset:LMTP1			Mobility_markerset:RPSIS			Mobility_markerset:RASIS			Mobility_markerset:RTH1			Mobility_markerset:RTH2			Mobility_markerset:RTH3			Mobility_markerset:RTH4			Mobility_markerset:RLFE			Mobility_markerset:RMFE			Mobility_markerset:RSH1			Mobility_markerset:RSH2			Mobility_markerset:RSH3			Mobility_markerset:RSH4			Mobility_markerset:RLMAL			Mobility_markerset:RMMAL			Mobility_markerset:RCAL			Mobility_markerset:RMTP1			Mobility_markerset:RTOE			Mobility_markerset:RMTP5		
		X1	Y1	Z1	X2	Y2	Z2	X3	Y3	Z3	X4	Y4	Z4	X5	Y5	Z5	X6	Y6	Z6	X7	Y7	Z7	X8	Y8	Z8	X9	Y9	Z9	X10	Y10	Z10	X11	Y11	Z11	X12	Y12	Z12	X13	Y13	Z13	X14	Y14	Z14	X15	Y15	Z15	X16	Y16	Z16	X17	Y17	Z17	X18	Y18	Z18	X19	Y19	Z19	X20	Y20	Z20	X21	Y21	Z21	X22	Y22	Z22	X23	Y23	Z23	X24	Y24	Z24	X25	Y25	Z25	X26	Y26	Z26	X27	Y27	Z27	X28	Y28	Z28	X29	Y29	Z29	X30	Y30	Z30	X31	Y31	Z31	X32	Y32	Z32	X33	Y33	Z33	X34	Y34	Z34	X35	Y35	Z35	X36	Y36	Z36

568	4.72500	-53.92611	1018.78436	362.32101	-301.29037	998.40765	417.24539	-284.71930	677.50287	478.69241	-306.32626	636.23889	467.45346	-338.24332	702.26447	468.00143	-351.02637	659.59833	455.36508	0.00000	0.00000	0.00000	-397.40399	496.60269	351.92792	-355.03580	371.13571	413.00439	-363.62015	324.79184	414.99731	-416.82242	377.23972	404.68436	-415.85318	330.25659	405.83661	-420.01675	87.49994	391.78375	-402.70221	85.44257	313.18979	-340.83624	50.27078	359.54752	-566.38202	53.34511	397.72409	-584.32727	79.75507	328.32858	-566.42847	64.17389	296.88599	-44.42288	1018.71198	259.44772	-265.93219	957.63049	159.40607	-61.39762	658.09760	112.83975	-62.77642	614.48151	118.63848	-124.17316	651.32080	108.15709	-114.92057	609.62347	113.08321	-70.16130	467.63345	154.55276	-93.62669	476.53287	275.75897	128.13577	365.06763	158.81334	154.51224	329.18271	159.93680	82.19754	323.83377	152.81808	116.13712	292.09714	155.65643	251.25571	176.03175	192.90956	216.88611	176.36111	274.79117	306.21997	188.48810	245.73701	165.58762	48.17661	285.44391	134.51315	53.13176	238.92293	189.85286	41.66202	172.95132
569	4.73333	-66.12350	1020.01312	362.47708	-313.38397	999.96271	418.36600	-295.36670	678.78271	480.04477	-316.59827	637.19257	468.94763	-349.12955	703.09082	469.06046	-361.42767	660.18427	456.53247	0.00000	0.00000	0.00000	-406.19504	496.83322	353.24875	-360.85577	371.35526	413.83813	-368.80026	324.79346	415.69922	-422.83780	376.50720	405.72372	-419.93439	330.51221	407.31851	-420.89865	87.16035	391.97717	-403.78488	85.39716	313.50613	-341.08920	50.96147	359.49792	-567.18427	50.90158	398.05582	-585.06024	77.28438	328.67728	-567.18860	62.00179	297.11111	-56.62064	1018.86658	259.56345	-278.45264	958.49652	161.16812	-77.93518	656.78809	112.26676	-79.22168	613.25134	118.19732	-140.07059	650.78369	107.68085	-131.43321	608.91638	112.49477	-88.58710	465.96198	152.60994	-112.18211	474.89154	274.41684	112.32233	368.66547	158.14824	139.97879	333.20459	159.56844	67.54662	325.92920	151.73776	102.15153	295.39252	154.61562	239.56218	183.85884	192.13019	205.40436	181.90297	273.97720	293.93619	199.33192	245.03093	163.62753	49.57010	285.77032	132.35310	52.96227	238.95743	187.25848	44.60692	172.58882
570	4.74167	-78.11978	1021.30621	362.55899	-325.21011	1001.60431	419.65039	-305.34485	679.62408	481.49286	-326.29562	637.95276	470.29443	-358.80695	703.41101	470.30463	-371.18051	660.51819	457.85138	0.00000	0.00000	0.00000	-414.73962	496.83981	354.87143	-366.52670	371.50595	414.76556	-373.63773	324.83817	416.55560	-428.49731	375.84464	406.82492	-424.92752	329.87823	408.25974	-421.80585	86.80385	392.07629	-405.03827	85.22592	313.87689	-341.80322	51.16492	359.55008	-567.52582	48.37876	398.18857	-585.73169	74.50136	329.14432	-567.95581	59.78165	297.46057	-68.64082	1019.03961	259.56754	-290.72351	959.68286	163.16426	-94.20995	655.18060	112.02014	-96.33034	611.52826	117.50430	-156.63326	649.94568	107.21112	-148.59332	607.92297	111.89867	-108.30032	464.20792	151.17406	-131.61842	473.00839	273.60214	95.56338	371.76477	157.73923	123.83138	337.50806	159.22240	52.08450	328.20389	150.83650	85.95997	299.03650	153.23376	227.32155	191.65906	191.72525	193.23058	187.80229	273.47272	280.34579	210.72922	244.56055	160.18694	52.38151	285.53632	128.90755	53.54689	238.84729	184.03337	48.72054	172.23436
571	4.75000	-89.77518	1022.48865	362.43668	-336.78540	1003.27148	420.94476	-314.82501	680.33582	483.00928	-335.07620	638.42963	471.46109	-368.67523	703.52502	472.04788	-380.51700	660.62457	459.38843	0.00000	0.00000	0.00000	-423.18262	496.92291	356.71811	-371.99921	371.71103	415.77509	-378.34134	324.93661	417.32922	-434.18802	375.12094	407.94388	-430.05939	328.92184	409.09192	-422.73450	86.40039	392.06061	-406.04794	85.11387	314.17905	-342.48260	51.39949	359.64923	-568.33679	45.96015	398.22949	-586.92908	71.68047	329.71301	-568.97235	57.52406	297.81400	-80.40293	1019.10889	259.36551	-302.61032	961.11090	165.08073	-111.07222	653.07172	111.39553	-113.97775	609.41199	116.65324	-173.88760	648.70502	106.91070	-166.32495	606.61053	111.10279	-128.77209	461.96777	149.51625	-152.08276	471.20139	271.74338	77.58640	375.26566	156.95093	107.14902	341.86188	158.80632	35.79448	330.58786	149.93138	70.50749	302.40005	152.46773	214.32523	200.03340	191.65359	180.31923	194.36584	273.23639	265.44980	222.63591	244.33832	155.99312	55.88646	285.50882	125.09228	54.81180	238.76350	180.31160	53.97731	172.08932
572	4.75833	-101.23047	1023.67548	362.29483	-348.22375	1005.05811	422.15121	-323.59995	680.96796	484.41812	-342.72479	637.95135	472.71869	-377.78159	703.59875	473.95627	-389.37030	660.59076	460.95270	0.00000	0.00000	0.00000	-431.28986	497.02121	358.29184	-377.18796	371.97794	416.73688	-382.72113	325.16370	418.21503	-439.34857	374.69281	409.02557	-434.54922	328.39545	410.16470	-423.47147	86.05921	392.16977	-406.99530	85.08889	314.46628	-342.83942	51.91490	359.76624	-568.54034	44.06870	398.31693	-587.95319	69.70288	329.98489	-569.67175	55.75631	298.06342	-91.81187	1019.30841	259.07858	-314.31305	962.60016	167.08025	-128.46213	650.41345	110.64750	-132.10291	606.80878	115.75453	-191.02376	647.52423	106.27216	-184.45247	605.25909	110.48421	-150.29616	459.79807	147.65871	-173.49878	468.37283	270.24826	59.16490	379.05576	156.55228	89.62400	346.12357	158.39993	18.80584	333.25650	149.09518	54.33191	306.00519	151.60991	199.96606	208.61301	191.59715	166.62038	201.29765	273.18982	249.13284	234.85988	244.16487	150.53484	60.72680	285.56055	120.31366	57.03566	238.38953	175.82780	60.20770	172.14452
